<?xml version="1.0" encoding="utf-8"?>
<!-- Generator: Adobe Illustrator 22.0.0, SVG Export Plug-In . SVG Version: 6.00 Build 0)  -->
<svg version="1.1" xmlns="http://www.w3.org/2000/svg" xmlns:xlink="http://www.w3.org/1999/xlink" x="0px" y="0px"
	 viewBox="0 0 106.3 16.5" style="enable-background:new 0 0 106.3 16.5;" xml:space="preserve">
<style type="text/css">
	.st0{fill-rule:evenodd;clip-rule:evenodd;fill:#FFC105;}
	.st1{fill:none;stroke:#99854C;stroke-width:0.7087;stroke-linecap:round;stroke-linejoin:round;stroke-miterlimit:10;}
	.st2{fill-rule:evenodd;clip-rule:evenodd;fill:#00B0B9;}
	.st3{fill-rule:evenodd;clip-rule:evenodd;fill:#26D07C;}
	.st4{fill-rule:evenodd;clip-rule:evenodd;fill:#F3DD6D;}
	.st5{fill-rule:evenodd;clip-rule:evenodd;fill:#ADADAD;}
	.st6{fill-rule:evenodd;clip-rule:evenodd;fill:#B1C9E8;}
	.st7{fill:#FF0000;}
	.st8{font-family:'ArialMT';}
	.st9{font-size:2.1186px;}
	.st10{font-family:'MyriadPro-Regular';}
	.st11{font-size:2.8249px;}
	.st12{fill-rule:evenodd;clip-rule:evenodd;fill:#EF3340;}
</style>
<g id="_x5F__x5F_B_x5F_RETINO_LAB_RICERCA">
	<g id="HATCH">
		<path class="st0" d="M55.7,8.7h14.6v5.6H55.7V8.7L55.7,8.7z M51.2,8.7h4.5v5.6h-4.5V8.7L51.2,8.7z M45.2,14.2h6V8.7h-6V14.2
			L45.2,14.2z M41.1,8.7h4.1v5.6h-4.1V8.7L41.1,8.7z M35.8,14.2h5.3V8.7h-5.3V14.2L35.8,14.2z M30.8,8.7h5v5.5h-5V8.7L30.8,8.7z
			 M25.9,14.2h4.9V8.7h-4.9V14.2L25.9,14.2z"/>
	</g>
	<g id="HATCH_1_">
		<path class="st0" d="M76.3,7h-2.9V2.8h2.9V7L76.3,7z M83,7h-6.8V2.8H83V7L83,7z M86.2,7H83V2.8h3.2V7L86.2,7z M90.4,7h-4.2V2.8
			h4.2V7L90.4,7z M70.3,8.7h8.2v5.6h-8.2V8.7L70.3,8.7z M78.5,8.7h4.9v5.6h-4.9V8.7L78.5,8.7z M83.4,8.7H91v5.6h-7.6V8.7L83.4,8.7z
			 M91,8.7h4.5v5.6H91V8.7L91,8.7z"/>
	</g>
	<g id="HATCH_13_">
		<polygon class="st0" points="50.3,7 46.2,7 46.2,2.8 50.3,2.8 50.3,7 		"/>
	</g>
</g>
<g id="_x5F__x5F_B_x5F_LINEE_NORMALIZZATE">
	<g id="LWPOLYLINE">
		<rect x="0.4" y="2.2" class="st1" width="105.6" height="12.6"/>
	</g>
	<g id="LWPOLYLINE_1_">
		<rect x="20.7" y="9.5" class="st1" width="5.2" height="4.7"/>
	</g>
	<g id="LWPOLYLINE_2_">
		<rect x="25.9" y="8.7" class="st1" width="4.9" height="5.5"/>
	</g>
	<g id="LWPOLYLINE_3_">
		<rect x="30.8" y="8.7" class="st1" width="5" height="5.5"/>
	</g>
	<g id="LWPOLYLINE_4_">
		<rect x="35.8" y="8.7" class="st1" width="5.3" height="5.6"/>
	</g>
	<g id="LWPOLYLINE_5_">
		<rect x="41.1" y="8.7" class="st1" width="4.1" height="5.6"/>
	</g>
	<g id="LWPOLYLINE_6_">
		<rect x="45.2" y="8.7" class="st1" width="6" height="5.6"/>
	</g>
	<g id="LWPOLYLINE_7_">
		<rect x="20.7" y="2.8" class="st1" width="5.3" height="4.2"/>
	</g>
	<g id="LWPOLYLINE_8_">
		<rect x="60.7" y="2.8" class="st1" width="5" height="4.2"/>
	</g>
	<g id="LWPOLYLINE_9_">
		<rect x="100.8" y="2.8" class="st1" width="4.6" height="5.3"/>
	</g>
	<g id="LWPOLYLINE_10_">
		<polygon class="st1" points="100.4,10.6 100.4,8.1 105.4,8.1 105.4,14.2 98,14.2 98,10.6 		"/>
	</g>
	<g id="LWPOLYLINE_11_">
		<rect x="92.9" y="2.8" class="st1" width="3.3" height="4.2"/>
	</g>
	<g id="LWPOLYLINE_12_">
		<polygon class="st1" points="96.2,7 98.5,7 98.5,4.9 100.8,4.9 100.8,2.8 96.2,2.8 		"/>
	</g>
	<g id="LWPOLYLINE_13_">
		<rect x="90.4" y="2.8" class="st1" width="2.5" height="4.2"/>
	</g>
	<g id="LWPOLYLINE_14_">
		<rect x="86.2" y="2.8" class="st1" width="4.2" height="4.2"/>
	</g>
	<g id="LWPOLYLINE_15_">
		<rect x="83" y="2.8" class="st1" width="3.2" height="4.2"/>
	</g>
	<g id="LWPOLYLINE_16_">
		<rect x="76.3" y="2.8" class="st1" width="6.8" height="4.2"/>
	</g>
	<g id="LWPOLYLINE_17_">
		<rect x="73.3" y="2.8" class="st1" width="2.9" height="4.2"/>
	</g>
	<g id="LWPOLYLINE_18_">
		<rect x="70.3" y="2.8" class="st1" width="3" height="4.2"/>
	</g>
	<g id="LWPOLYLINE_19_">
		<rect x="65.7" y="2.8" class="st1" width="4.6" height="4.2"/>
	</g>
	<g id="LWPOLYLINE_20_">
		<rect x="56.3" y="2.8" class="st1" width="4.4" height="4.2"/>
	</g>
	<g id="LWPOLYLINE_21_">
		<rect x="53.3" y="2.8" class="st1" width="3" height="4.2"/>
	</g>
	<g id="LWPOLYLINE_22_">
		<rect x="50.3" y="2.8" class="st1" width="3" height="4.2"/>
	</g>
	<g id="LWPOLYLINE_23_">
		<rect x="46.2" y="2.8" class="st1" width="4" height="4.2"/>
	</g>
	<g id="LWPOLYLINE_24_">
		<rect x="43.5" y="2.8" class="st1" width="2.8" height="4.2"/>
	</g>
	<g id="LWPOLYLINE_25_">
		<rect x="40.4" y="2.8" class="st1" width="3.1" height="4.2"/>
	</g>
	<g id="LWPOLYLINE_26_">
		<rect x="36.2" y="2.8" class="st1" width="4.2" height="4.2"/>
	</g>
	<g id="LWPOLYLINE_27_">
		<rect x="33.3" y="2.8" class="st1" width="3" height="4.2"/>
	</g>
	<g id="LWPOLYLINE_28_">
		<rect x="30.8" y="2.8" class="st1" width="2.5" height="4.2"/>
	</g>
	<g id="LWPOLYLINE_29_">
		<rect x="26.1" y="2.8" class="st1" width="4.7" height="4.2"/>
	</g>
	<g id="LWPOLYLINE_30_">
		<rect x="18.2" y="2.8" class="st1" width="2.5" height="4.2"/>
	</g>
	<g id="LWPOLYLINE_31_">
		<rect x="13.3" y="2.8" class="st1" width="4.9" height="4.2"/>
	</g>
	<g id="LWPOLYLINE_32_">
		<rect x="10.3" y="2.8" class="st1" width="3.1" height="4.2"/>
	</g>
	<g id="LWPOLYLINE_33_">
		<rect x="5.7" y="2.8" class="st1" width="4.5" height="4.2"/>
	</g>
	<g id="LWPOLYLINE_34_">
		<rect x="1" y="2.8" class="st1" width="4.8" height="4.2"/>
	</g>
	<g id="LWPOLYLINE_35_">
		<rect x="15.4" y="8.7" class="st1" width="5.3" height="5.5"/>
	</g>
	<g id="LWPOLYLINE_36_">
		<rect x="10.6" y="8.7" class="st1" width="4.9" height="5.5"/>
	</g>
	<g id="LWPOLYLINE_37_">
		<rect x="5.9" y="8.7" class="st1" width="4.7" height="5.5"/>
	</g>
	<g id="LWPOLYLINE_38_">
		<rect x="1" y="8.7" class="st1" width="4.9" height="5.5"/>
	</g>
	<g id="LWPOLYLINE_39_">
		<rect x="51.2" y="8.7" class="st1" width="4.5" height="5.6"/>
	</g>
	<g id="LWPOLYLINE_40_">
		<rect x="55.7" y="8.7" class="st1" width="14.6" height="5.6"/>
	</g>
	<g id="LWPOLYLINE_41_">
		<rect x="70.3" y="8.7" class="st1" width="8.2" height="5.6"/>
	</g>
	<g id="LWPOLYLINE_42_">
		<rect x="78.5" y="8.7" class="st1" width="4.9" height="5.6"/>
	</g>
	<g id="LWPOLYLINE_43_">
		<rect x="83.4" y="8.7" class="st1" width="7.6" height="5.6"/>
	</g>
	<g id="LWPOLYLINE_44_">
		<rect x="91" y="8.7" class="st1" width="4.5" height="5.6"/>
	</g>
	<g id="LWPOLYLINE_45_">
		<rect x="95.5" y="8.7" class="st1" width="2.5" height="5.6"/>
	</g>
</g>
<g id="_x5F__x5F_B_x5F_RETINO_WC">
	<g id="HATCH_2_">
		<polygon class="st2" points="25.9,9.5 20.7,9.5 20.7,14.2 25.9,14.2 25.9,9.5 		"/>
	</g>
	<g id="HATCH_7_">
		<path class="st2" d="M92.9,7h3.3V2.8h-3.3V7L92.9,7z M96.2,7h2.3l0-2.1h2.3V2.8h-4.6V7L96.2,7z"/>
	</g>
</g>
<g id="_x5F__x5F_B_x5F_RETINO_SCALE_ASCENSORI">
	<g id="HATCH_3_">
		<polygon class="st3" points="26.1,7 20.7,7 20.7,2.8 26.1,2.8 26.1,7 		"/>
	</g>
	<g id="HATCH_4_">
		<polygon class="st3" points="60.7,7 65.7,7 65.7,2.8 60.7,2.8 60.7,7 		"/>
	</g>
	<g id="HATCH_5_">
		<polygon class="st3" points="100.8,2.8 105.4,2.8 105.4,8.2 100.8,8.2 100.8,2.8 		"/>
	</g>
</g>
<g id="_x5F__x5F_B_x5F_RETINO_UFFICI">
	<g id="HATCH_6_">
		<polygon class="st4" points="100.4,10.6 100.4,8.1 105.4,8.1 105.4,14.2 98,14.2 98,10.6 100.4,10.6 		"/>
	</g>
	<g id="HATCH_12_">
		<path class="st4" d="M30.8,7h-4.7V2.8h4.7V7L30.8,7z M33.3,7h-2.5V2.8h2.5V7L33.3,7z M36.2,7h-3V2.8h3V7L36.2,7z M40.4,7h-4.2V2.8
			h4.2V7L40.4,7z M43.5,7h-3.1V2.8h3.1V7L43.5,7z M46.2,7h-2.8V2.8h2.8V7L46.2,7z M53.3,7h-3V2.8h3V7L53.3,7z M56.3,7h-3V2.8h3V7
			L56.3,7z"/>
	</g>
	<g id="HATCH_15_">
		<path class="st4" d="M5.9,8.7H1v5.5h4.9V8.7L5.9,8.7z M10.6,8.7H5.9v5.5h4.7V8.7L10.6,8.7z M15.4,8.7h-4.9v5.5h4.9V8.7L15.4,8.7z
			 M20.7,8.7h-5.3v5.5h5.3V8.7L20.7,8.7z M5.7,7H1V2.8h4.8V7L5.7,7z M10.3,7H5.7V2.8h4.5V7L10.3,7z M13.3,7h-3.1V2.8h3.1V7L13.3,7z
			 M18.2,7h-4.9V2.8h4.9V7L18.2,7z"/>
	</g>
	<g id="HATCH_16_">
		<polygon class="st4" points="95.5,8.7 98,8.7 98,14.2 95.5,14.2 95.5,8.7 		"/>
	</g>
</g>
<g id="_x5F__x5F_B_x5F_RETINO_TECNICO">
	<g id="HATCH_8_">
		<polygon class="st5" points="92.9,7 90.4,7 90.4,2.8 92.9,2.8 92.9,7 		"/>
	</g>
	<g id="HATCH_9_">
		<polygon class="st5" points="73.3,7 70.3,7 70.3,2.8 73.3,2.8 73.3,7 		"/>
	</g>
	<g id="HATCH_10_">
		<polygon class="st5" points="70.3,7 65.7,7 65.7,2.8 70.3,2.8 70.3,7 		"/>
	</g>
	<g id="HATCH_14_">
		<polygon class="st5" points="20.7,7 18.2,7 18.2,2.8 20.7,2.8 20.7,7 		"/>
	</g>
</g>
<g id="_x5F__x5F_B_x5F_RETINO_MENSA-BAR-AREE_RISTORO">
	<g id="HATCH_11_">
		<polygon class="st6" points="60.7,7 56.3,7 56.3,2.8 60.7,2.8 60.7,7 		"/>
	</g>
</g>
<g id="_x5F__x5F_B_TESTI_-_NOTE">
	<g id="MTEXT">
		<text transform="matrix(1 0 0 1 102.9575 5.7103)" class="st7 st8 st9">A</text>
	</g>
	<g id="MTEXT_7_">
		<text transform="matrix(1 0 0 1 62.5211 5.2883)" class="st7 st8 st9">A</text>
	</g>
</g>
<g id="_x5F__x5F_B_TESTI">
	<g id="MTEXT_1_">
		<text transform="matrix(1 0 0 1 20.6435 10.5271)" class="st10 st11">WCM</text>
	</g>
	<g id="MTEXT_2_">
		<text transform="matrix(1 0 0 1 19.8834 13.0536)" class="st10 st11">WCF</text>
	</g>
	<g id="MTEXT_3_">
		<text transform="matrix(1 0 0 1 20.2981 15.7744)" class="st10 st11">WCD</text>
	</g>
	<g id="MTEXT_4_">
		<text transform="matrix(1 0 0 1 94.1231 3.371)" class="st10 st11">WCM</text>
	</g>
	<g id="MTEXT_5_">
		<text transform="matrix(1 0 0 1 93.363 5.8976)" class="st10 st11">WCF</text>
	</g>
	<g id="MTEXT_6_">
		<text transform="matrix(1 0 0 1 93.7775 8.6184)" class="st10 st11">WCD</text>
	</g>
	<g id="MTEXT_8_">
		<text transform="matrix(1 0 0 1 50.8364 2.3642)" class="st10 st11">R 14.1.1</text>
	</g>
</g>
<g id="_x5F__x5F_B_FRECCE_ENTRATA">
	<g id="HATCH_17_">
		<polygon class="st12" points="93.7,5.4 92.6,7.4 94.9,7.4 93.7,5.4 		"/>
	</g>
	<g id="HATCH_18_">
		<polygon class="st12" points="57.6,5.4 56.4,7.4 58.7,7.4 57.6,5.4 		"/>
	</g>
	<g id="HATCH_19_">
		<polygon class="st12" points="23.5,5.4 22.4,7.4 24.7,7.4 23.5,5.4 		"/>
	</g>
	<g id="HATCH_20_">
		<polygon class="st12" points="63.4,5.5 62.2,7.6 64.5,7.6 63.4,5.5 		"/>
	</g>
	<g id="HATCH_21_">
		<polygon class="st12" points="102.1,6.8 100.1,5.6 100.1,8 102.1,6.8 		"/>
	</g>
</g>
</svg>
