<?xml version="1.0" encoding="utf-8"?>
<!-- Generator: Adobe Illustrator 22.0.0, SVG Export Plug-In . SVG Version: 6.00 Build 0)  -->
<svg version="1.1" xmlns="http://www.w3.org/2000/svg" xmlns:xlink="http://www.w3.org/1999/xlink" x="0px" y="0px"
	 viewBox="0 0 106.3 16.7" style="enable-background:new 0 0 106.3 16.7;" xml:space="preserve">
<style type="text/css">
	.st0{fill:none;stroke:#99854C;stroke-width:0.7087;stroke-linecap:round;stroke-linejoin:round;stroke-miterlimit:10;}
	.st1{fill-rule:evenodd;clip-rule:evenodd;fill:#D25B73;}
	.st2{fill-rule:evenodd;clip-rule:evenodd;fill:#00B0B9;}
	.st3{fill-rule:evenodd;clip-rule:evenodd;fill:#FFC105;}
	.st4{fill-rule:evenodd;clip-rule:evenodd;fill:#F3DD6D;}
	.st5{fill-rule:evenodd;clip-rule:evenodd;fill:#E4002B;}
	.st6{fill-rule:evenodd;clip-rule:evenodd;fill:#ADADAD;}
	.st7{fill-rule:evenodd;clip-rule:evenodd;fill:#26D07C;}
	.st8{fill-rule:evenodd;clip-rule:evenodd;fill:#9B2242;}
	.st9{fill-rule:evenodd;clip-rule:evenodd;fill:#F4C3CC;}
	.st10{font-family:'MyriadPro-Regular';}
	.st11{font-size:2.8249px;}
	.st12{fill:#FF0000;}
	.st13{font-family:'ArialMT';}
	.st14{font-size:2.1186px;}
	.st15{fill-rule:evenodd;clip-rule:evenodd;fill:#EF3340;}
</style>
<g id="_x5F__x5F_B_x5F_LINEE_NORMALIZZATE">
	<g id="LWPOLYLINE">
		<rect x="0.4" y="1.6" class="st0" width="105.6" height="12.6"/>
	</g>
	<g id="LWPOLYLINE_1_">
		<rect x="1" y="2.2" class="st0" width="19.8" height="11.4"/>
	</g>
	<g id="LWPOLYLINE_2_">
		<rect x="20.7" y="8.9" class="st0" width="5.2" height="4.7"/>
	</g>
	<g id="LWPOLYLINE_3_">
		<rect x="25.9" y="8" class="st0" width="5.1" height="5.5"/>
	</g>
	<g id="LWPOLYLINE_4_">
		<rect x="31" y="8" class="st0" width="4.8" height="5.5"/>
	</g>
	<g id="LWPOLYLINE_5_">
		<rect x="35.8" y="8" class="st0" width="4.5" height="5.6"/>
	</g>
	<g id="LWPOLYLINE_6_">
		<rect x="40.3" y="8" class="st0" width="2.8" height="5.6"/>
	</g>
	<g id="LWPOLYLINE_7_">
		<rect x="43.1" y="8" class="st0" width="7.2" height="5.6"/>
	</g>
	<g id="LWPOLYLINE_8_">
		<rect x="50.3" y="8" class="st0" width="5.6" height="5.6"/>
	</g>
	<g id="LWPOLYLINE_9_">
		<rect x="55.9" y="10.1" class="st0" width="4.3" height="3.5"/>
	</g>
	<g id="LWPOLYLINE_10_">
		<rect x="65.5" y="9.6" class="st0" width="2.6" height="4"/>
	</g>
	<g id="LWPOLYLINE_11_">
		<rect x="68.1" y="9.6" class="st0" width="2.1" height="4"/>
	</g>
	<g id="LWPOLYLINE_12_">
		<rect x="20.7" y="2.2" class="st0" width="5.3" height="4.3"/>
	</g>
	<g id="LWPOLYLINE_13_">
		<rect x="60.7" y="2.2" class="st0" width="5" height="4.2"/>
	</g>
	<g id="LWPOLYLINE_14_">
		<rect x="100.8" y="2.2" class="st0" width="4.6" height="5.3"/>
	</g>
	<g id="LWPOLYLINE_15_">
		<rect x="26.1" y="2.2" class="st0" width="4.1" height="4.3"/>
	</g>
	<g id="LWPOLYLINE_16_">
		<rect x="30.2" y="2.2" class="st0" width="5" height="4.3"/>
	</g>
	<g id="LWPOLYLINE_17_">
		<rect x="35.2" y="2.2" class="st0" width="3.3" height="4.3"/>
	</g>
	<g id="LWPOLYLINE_18_">
		<rect x="38.5" y="2.2" class="st0" width="2.6" height="4.3"/>
	</g>
	<g id="LWPOLYLINE_19_">
		<rect x="43.2" y="2.2" class="st0" width="2.9" height="4.2"/>
	</g>
	<g id="LWPOLYLINE_20_">
		<rect x="46.1" y="2.2" class="st0" width="4.7" height="4.2"/>
	</g>
	<g id="LWPOLYLINE_21_">
		<rect x="50.8" y="2.2" class="st0" width="2.6" height="4.2"/>
	</g>
	<g id="LWPOLYLINE_22_">
		<rect x="53.3" y="2.2" class="st0" width="2.9" height="4.2"/>
	</g>
	<g id="LWPOLYLINE_23_">
		<rect x="56.2" y="2.2" class="st0" width="4.5" height="4.2"/>
	</g>
	<g id="LWPOLYLINE_24_">
		<rect x="65.7" y="2.2" class="st0" width="4.4" height="4.2"/>
	</g>
	<g id="LWPOLYLINE_25_">
		<rect x="70.1" y="2.2" class="st0" width="10" height="4.2"/>
	</g>
	<g id="LINE">
		<line class="st0" x1="60.2" y1="10.1" x2="60.2" y2="6.4"/>
	</g>
	<g id="LINE_1_">
		<line class="st0" x1="70.1" y1="9.6" x2="70.1" y2="6.4"/>
	</g>
	<g id="LWPOLYLINE_26_">
		<rect x="72.9" y="7.5" class="st0" width="12.8" height="6.1"/>
	</g>
	<g id="LWPOLYLINE_27_">
		<rect x="85.7" y="7.5" class="st0" width="12.3" height="6.1"/>
	</g>
	<g id="LWPOLYLINE_28_">
		<polygon class="st0" points="100.4,10 100.4,7.5 105.4,7.5 105.4,13.6 98,13.6 98,10 		"/>
	</g>
	<g id="LWPOLYLINE_29_">
		<rect x="92.9" y="2.2" class="st0" width="3.3" height="4.2"/>
	</g>
	<g id="LWPOLYLINE_30_">
		<polygon class="st0" points="96.2,6.4 98.5,6.4 98.5,4.3 100.8,4.3 100.8,2.2 96.2,2.2 		"/>
	</g>
	<g id="LINE_2_">
		<line class="st0" x1="60.2" y1="12.2" x2="65.5" y2="12.2"/>
	</g>
	<g id="LWPOLYLINE_31_">
		<rect x="80.2" y="2.2" class="st0" width="12.7" height="4.2"/>
	</g>
</g>
<g id="_x5F__x5F_B_x5F_RETINO_LAB">
	<g id="HATCH">
		<polygon class="st1" points="20.7,13.6 1,13.6 1,2.2 20.7,2.2 20.7,13.6 		"/>
	</g>
</g>
<g id="_x5F__x5F_B_x5F_RETINO_WC">
	<g id="HATCH_1_">
		<polygon class="st2" points="25.9,8.9 20.7,8.9 20.7,13.6 25.9,13.6 25.9,8.9 		"/>
	</g>
	<g id="HATCH_15_">
		<path class="st2" d="M92.9,6.4h3.3V2.2h-3.3V6.4L92.9,6.4z M96.2,6.4h2.3l0-2.1h2.3V2.2h-4.6V6.4L96.2,6.4z"/>
	</g>
</g>
<g id="_x5F__x5F_B_x5F_RETINO_LAB_RICERCA">
	<g id="HATCH_2_">
		<path class="st3" d="M50.3,8h5.6v5.6h-5.6V8L50.3,8z M43.1,13.6h7.2V8h-7.2V13.6L43.1,13.6z M40.3,8h2.8v5.6h-2.8V8L40.3,8z
			 M35.8,13.6h4.5V8h-4.5V13.6L35.8,13.6z M31,8h4.8v5.5H31V8L31,8z M25.9,13.6h5V8h-5V13.6L25.9,13.6z"/>
	</g>
	<g id="HATCH_12_">
		<path class="st3" d="M26.1,6.5h4.1V2.2h-4.1V6.5L26.1,6.5z M30.2,6.5h5V2.2h-5V6.5L30.2,6.5z M35.2,6.5h3.3V2.2h-3.3V6.5L35.2,6.5
			z M38.5,6.5h2.6V2.2h-2.6V6.5L38.5,6.5z M43.2,2.2h2.9v4.2h-2.9V2.2L43.2,2.2z M46.1,6.4h4.7V2.2h-4.7V6.4L46.1,6.4z"/>
	</g>
</g>
<g id="_x5F__x5F_B_x5F_RETINO_UFFICI">
	<g id="HATCH_3_">
		<polygon class="st4" points="50.8,6.4 53.3,6.4 53.3,2.2 50.8,2.2 50.8,6.4 		"/>
	</g>
	<g id="HATCH_5_">
		<polygon class="st4" points="55.9,13.6 60.2,13.6 60.2,10.1 55.9,10.1 55.9,13.6 		"/>
	</g>
	<g id="HATCH_6_">
		<polygon class="st4" points="56.2,6.4 60.7,6.4 60.7,2.2 56.2,2.2 56.2,6.4 		"/>
	</g>
	<g id="HATCH_7_">
		<polygon class="st4" points="53.3,2.2 56.2,2.2 56.2,6.4 53.3,6.4 53.3,2.2 		"/>
	</g>
	<g id="HATCH_14_">
		<polygon class="st4" points="100.4,10 100.4,7.5 105.4,7.5 105.4,13.6 98,13.6 98,10 100.4,10 		"/>
	</g>
</g>
<g id="dddddddddd">
	<g id="HATCH_4_">
		<polygon class="st5" points="65.5,9.6 68.1,9.6 68.1,13.6 65.5,13.6 65.5,9.6 		"/>
	</g>
</g>
<g id="_x5F__x5F_B_x5F_RETINO_TECNICO">
	<g id="HATCH_8_">
		<path class="st6" d="M65.7,6.4h4.4V2.2h-4.4V6.4L65.7,6.4z M68.1,9.6h2.1v4h-2.1V9.6L68.1,9.6z"/>
	</g>
</g>
<g id="_x5F__x5F_B_x5F_RETINO_SCALE_ASCENSORI">
	<g id="HATCH_9_">
		<polygon class="st7" points="26.1,6.5 20.7,6.5 20.7,2.2 26.1,2.2 26.1,6.5 		"/>
	</g>
	<g id="HATCH_10_">
		<polygon class="st7" points="60.7,6.4 65.7,6.4 65.7,2.2 60.7,2.2 60.7,6.4 		"/>
	</g>
	<g id="HATCH_11_">
		<polygon class="st7" points="100.8,2.2 105.4,2.2 105.4,7.5 100.8,7.5 100.8,2.2 		"/>
	</g>
</g>
<g id="_x5F__x5F_B_x5F_RETINO_AULE">
	<g id="HATCH_13_">
		<path class="st8" d="M72.9,13.6h12.8V7.5H72.9V13.6L72.9,13.6z M85.7,7.5H98v6.1H85.7V7.5L85.7,7.5z M70.1,2.2h10v4.2h-10V2.2
			L70.1,2.2z"/>
	</g>
</g>
<g id="_x5F__x5F_B_x5F_RETINO_AULE-ZONE_STUDIO">
	<g id="HATCH_16_">
		<polygon class="st9" points="80.2,6.4 92.9,6.4 92.9,2.2 80.2,2.2 80.2,6.4 		"/>
	</g>
</g>
<g id="_x5F__x5F_B_TESTI">
	<g id="MTEXT">
		<text transform="matrix(1 0 0 1 63.0481 12.739)" class="st10 st11">P 14.T.1</text>
	</g>
	<g id="MTEXT_1_">
		<text transform="matrix(1 0 0 1 76.6077 9.8786)" class="st10 st11">AULA </text>
		<text transform="matrix(1 0 0 1 75.4648 13.2119)" class="st10 st11">14.T.2</text>
	</g>
	<g id="MTEXT_2_">
		<text transform="matrix(1 0 0 1 88.4948 9.7167)" class="st10 st11">AULA </text>
		<text transform="matrix(1 0 0 1 87.352 13.05)" class="st10 st11">14.T.3</text>
	</g>
	<g id="MTEXT_3_">
		<text transform="matrix(1 0 0 1 83.5219 3.3051)" class="st10 st11">AS </text>
		<text transform="matrix(1 0 0 1 80.8076 6.6384)" class="st10 st11">14.T.1</text>
	</g>
	<g id="MTEXT_6_">
		<text transform="matrix(1 0 0 1 20.9762 10.2766)" class="st10 st11">WCM</text>
	</g>
	<g id="MTEXT_7_">
		<text transform="matrix(1 0 0 1 20.2161 12.8032)" class="st10 st11">WCF</text>
	</g>
	<g id="MTEXT_8_">
		<text transform="matrix(1 0 0 1 20.6308 15.524)" class="st10 st11">WCD</text>
	</g>
	<g id="MTEXT_9_">
		<text transform="matrix(1 0 0 1 94.2802 2.3643)" class="st10 st11">WCM</text>
	</g>
	<g id="MTEXT_10_">
		<text transform="matrix(1 0 0 1 93.5202 4.8909)" class="st10 st11">WCF</text>
	</g>
	<g id="MTEXT_11_">
		<text transform="matrix(1 0 0 1 7.427 7.0078)" class="st10 st11">LADI </text>
		<text transform="matrix(1 0 0 1 6.046 10.3412)" class="st10 st11">14.T.1</text>
	</g>
	<g id="MTEXT_12_">
		<text transform="matrix(1 0 0 1 71.0827 2.6736)" class="st10 st11">AULA </text>
		<text transform="matrix(1 0 0 1 70.2256 6.0069)" class="st10 st11">14.T.1</text>
	</g>
	<g id="MTEXT_13_">
		<text transform="matrix(1 0 0 1 93.9347 7.6117)" class="st10 st11">WCD</text>
	</g>
</g>
<g id="_x5F__x5F_B_TESTI_-_NOTE">
	<g id="MTEXT_4_">
		<text transform="matrix(1 0 0 1 62.4692 5.8093)" class="st12 st13 st14">A</text>
	</g>
	<g id="MTEXT_5_">
		<text transform="matrix(1 0 0 1 102.9575 5.085)" class="st12 st13 st14">A</text>
	</g>
</g>
<g id="_x5F__x5F_B_FRECCE_ENTRATA">
	<g id="HATCH_17_">
		<polygon class="st15" points="62.7,12.6 60.4,16.7 65.1,16.7 62.7,12.6 		"/>
	</g>
	<g id="HATCH_18_">
		<polygon class="st15" points="78.2,5 77,7.1 79.3,7.1 78.2,5 		"/>
	</g>
	<g id="HATCH_19_">
		<polygon class="st15" points="19.3,7.3 21.4,8.4 21.4,6.1 19.3,7.3 		"/>
	</g>
	<g id="HATCH_20_">
		<polygon class="st15" points="63.3,6 62.1,8.1 64.5,8.1 63.3,6 		"/>
	</g>
	<g id="HATCH_21_">
		<polygon class="st15" points="102.1,6.2 100.1,5 100.1,7.4 102.1,6.2 		"/>
	</g>
	<g id="HATCH_22_">
		<polygon class="st15" points="23.5,4.8 22.4,6.8 24.7,6.8 23.5,4.8 		"/>
	</g>
	<g id="HATCH_23_">
		<polygon class="st15" points="75.2,8.8 76.4,6.7 74,6.7 75.2,8.8 		"/>
	</g>
	<g id="HATCH_24_">
		<polygon class="st15" points="84.2,8.8 85.3,6.7 83,6.7 84.2,8.8 		"/>
	</g>
	<g id="HATCH_25_">
		<polygon class="st15" points="87.7,8.8 88.9,6.7 86.5,6.7 87.7,8.8 		"/>
	</g>
	<g id="HATCH_26_">
		<polygon class="st15" points="96.7,8.8 97.9,6.7 95.5,6.7 96.7,8.8 		"/>
	</g>
</g>
</svg>
