<?xml version="1.0" encoding="utf-8"?>
<!-- Generator: Adobe Illustrator 22.0.0, SVG Export Plug-In . SVG Version: 6.00 Build 0)  -->
<svg version="1.1" xmlns="http://www.w3.org/2000/svg" xmlns:xlink="http://www.w3.org/1999/xlink" x="0px" y="0px"
	 viewBox="0 0 106.3 15.9" style="enable-background:new 0 0 106.3 15.9;" xml:space="preserve">
<style type="text/css">
	.st0{fill:none;stroke:#99854C;stroke-width:0.7087;stroke-linecap:round;stroke-linejoin:round;stroke-miterlimit:10;}
	.st1{fill-rule:evenodd;clip-rule:evenodd;fill:#00B0B9;}
	.st2{fill-rule:evenodd;clip-rule:evenodd;fill:#F3DD6D;}
	.st3{fill-rule:evenodd;clip-rule:evenodd;fill:#26D07C;}
	.st4{fill-rule:evenodd;clip-rule:evenodd;fill:#ADADAD;}
	.st5{fill:#FF0000;}
	.st6{font-family:'ArialMT';}
	.st7{font-size:2.1186px;}
	.st8{font-family:'MyriadPro-Regular';}
	.st9{font-size:2.8249px;}
	.st10{fill-rule:evenodd;clip-rule:evenodd;fill:#EF3340;}
</style>
<g id="_x5F__x5F_B_x5F_LINEE_NORMALIZZATE">
	<g id="LWPOLYLINE">
		<rect x="0.4" y="1.7" class="st0" width="105.6" height="12.6"/>
	</g>
	<g id="LWPOLYLINE_1_">
		<rect x="20.7" y="9" class="st0" width="5.2" height="4.7"/>
	</g>
	<g id="LWPOLYLINE_2_">
		<rect x="25.9" y="8.1" class="st0" width="4.3" height="5.5"/>
	</g>
	<g id="LWPOLYLINE_3_">
		<rect x="30.2" y="8.1" class="st0" width="3.2" height="5.5"/>
	</g>
	<g id="LWPOLYLINE_4_">
		<rect x="33.4" y="8.1" class="st0" width="2.9" height="5.6"/>
	</g>
	<g id="LWPOLYLINE_5_">
		<rect x="43" y="8.1" class="st0" width="3.1" height="5.6"/>
	</g>
	<g id="LWPOLYLINE_6_">
		<rect x="46.1" y="8.1" class="st0" width="4.1" height="5.6"/>
	</g>
	<g id="LWPOLYLINE_7_">
		<rect x="20.7" y="2.3" class="st0" width="5.3" height="4.2"/>
	</g>
	<g id="LWPOLYLINE_8_">
		<rect x="60.7" y="2.3" class="st0" width="5" height="4.2"/>
	</g>
	<g id="LWPOLYLINE_9_">
		<rect x="100.8" y="2.3" class="st0" width="4.6" height="5.3"/>
	</g>
	<g id="LWPOLYLINE_10_">
		<polygon class="st0" points="100.4,10.1 100.4,7.6 105.4,7.6 105.4,13.7 98,13.7 98,10.1 		"/>
	</g>
	<g id="LWPOLYLINE_11_">
		<rect x="92.9" y="2.3" class="st0" width="3.3" height="4.2"/>
	</g>
	<g id="LWPOLYLINE_12_">
		<polygon class="st0" points="96.2,6.5 98.5,6.5 98.5,4.4 100.8,4.4 100.8,2.3 96.2,2.3 		"/>
	</g>
	<g id="LWPOLYLINE_13_">
		<rect x="90.4" y="2.3" class="st0" width="2.5" height="4.2"/>
	</g>
	<g id="LWPOLYLINE_14_">
		<rect x="86.2" y="2.3" class="st0" width="4.2" height="4.2"/>
	</g>
	<g id="LWPOLYLINE_15_">
		<rect x="83.5" y="2.3" class="st0" width="2.7" height="4.2"/>
	</g>
	<g id="LWPOLYLINE_16_">
		<rect x="76.3" y="2.3" class="st0" width="3.9" height="4.2"/>
	</g>
	<g id="LWPOLYLINE_17_">
		<rect x="73.3" y="2.3" class="st0" width="2.9" height="4.2"/>
	</g>
	<g id="LWPOLYLINE_18_">
		<rect x="70.3" y="2.3" class="st0" width="3" height="4.2"/>
	</g>
	<g id="LWPOLYLINE_19_">
		<rect x="65.7" y="2.3" class="st0" width="4.6" height="4.2"/>
	</g>
	<g id="LWPOLYLINE_20_">
		<rect x="56.3" y="2.3" class="st0" width="4.4" height="4.2"/>
	</g>
	<g id="LWPOLYLINE_21_">
		<rect x="53.3" y="2.3" class="st0" width="3" height="4.2"/>
	</g>
	<g id="LWPOLYLINE_22_">
		<rect x="50.3" y="2.3" class="st0" width="3" height="4.2"/>
	</g>
	<g id="LWPOLYLINE_23_">
		<rect x="46.2" y="2.3" class="st0" width="4" height="4.2"/>
	</g>
	<g id="LWPOLYLINE_24_">
		<rect x="43.5" y="2.3" class="st0" width="2.8" height="4.2"/>
	</g>
	<g id="LWPOLYLINE_25_">
		<rect x="40.4" y="2.3" class="st0" width="3.1" height="4.2"/>
	</g>
	<g id="LWPOLYLINE_26_">
		<rect x="36.2" y="2.3" class="st0" width="4.2" height="4.2"/>
	</g>
	<g id="LWPOLYLINE_27_">
		<rect x="33.3" y="2.3" class="st0" width="3" height="4.2"/>
	</g>
	<g id="LWPOLYLINE_28_">
		<rect x="30.3" y="2.3" class="st0" width="2.9" height="4.2"/>
	</g>
	<g id="LWPOLYLINE_29_">
		<rect x="26.1" y="2.3" class="st0" width="4.3" height="4.2"/>
	</g>
	<g id="LWPOLYLINE_30_">
		<rect x="18.2" y="2.3" class="st0" width="2.5" height="4.2"/>
	</g>
	<g id="LWPOLYLINE_31_">
		<rect x="12.8" y="2.3" class="st0" width="2.4" height="4.2"/>
	</g>
	<g id="LWPOLYLINE_32_">
		<rect x="10.1" y="2.3" class="st0" width="2.7" height="4.2"/>
	</g>
	<g id="LWPOLYLINE_33_">
		<rect x="6.3" y="2.3" class="st0" width="3.8" height="4.2"/>
	</g>
	<g id="LWPOLYLINE_34_">
		<rect x="1" y="2.3" class="st0" width="2.6" height="4.2"/>
	</g>
	<g id="LWPOLYLINE_35_">
		<rect x="13.1" y="8.1" class="st0" width="3.1" height="5.5"/>
	</g>
	<g id="LWPOLYLINE_36_">
		<rect x="10.1" y="8.1" class="st0" width="3" height="5.5"/>
	</g>
	<g id="LWPOLYLINE_37_">
		<rect x="6" y="8.1" class="st0" width="4.1" height="5.5"/>
	</g>
	<g id="LWPOLYLINE_38_">
		<rect x="1" y="8.1" class="st0" width="5.1" height="5.5"/>
	</g>
	<g id="LWPOLYLINE_39_">
		<rect x="50.2" y="8.1" class="st0" width="2.8" height="5.6"/>
	</g>
	<g id="LWPOLYLINE_40_">
		<rect x="55.7" y="9.3" class="st0" width="2.8" height="4.4"/>
	</g>
	<g id="LWPOLYLINE_41_">
		<rect x="70.8" y="8.1" class="st0" width="2.5" height="5.6"/>
	</g>
	<g id="LWPOLYLINE_42_">
		<rect x="80.1" y="8.1" class="st0" width="3.1" height="5.6"/>
	</g>
	<g id="LWPOLYLINE_43_">
		<rect x="86.3" y="8.1" class="st0" width="3.8" height="5.6"/>
	</g>
	<g id="LWPOLYLINE_44_">
		<rect x="90.1" y="8.1" class="st0" width="3" height="5.6"/>
	</g>
	<g id="LWPOLYLINE_45_">
		<rect x="93.1" y="8.1" class="st0" width="4.8" height="5.6"/>
	</g>
	<g id="LWPOLYLINE_46_">
		<rect x="16.1" y="8.1" class="st0" width="4.6" height="5.5"/>
	</g>
	<g id="LWPOLYLINE_47_">
		<rect x="3.5" y="2.3" class="st0" width="2.8" height="4.2"/>
	</g>
	<g id="LWPOLYLINE_48_">
		<rect x="15.2" y="2.3" class="st0" width="3" height="4.2"/>
	</g>
	<g id="LWPOLYLINE_49_">
		<rect x="36.3" y="8.1" class="st0" width="3.9" height="5.6"/>
	</g>
	<g id="LWPOLYLINE_50_">
		<rect x="40.2" y="8.1" class="st0" width="2.8" height="5.6"/>
	</g>
	<g id="LWPOLYLINE_51_">
		<rect x="58.6" y="8.1" class="st0" width="4.4" height="5.6"/>
	</g>
	<g id="LWPOLYLINE_52_">
		<rect x="63" y="8.1" class="st0" width="3.3" height="5.6"/>
	</g>
	<g id="LWPOLYLINE_53_">
		<rect x="66.3" y="9.5" class="st0" width="4.4" height="4.2"/>
	</g>
	<g id="LWPOLYLINE_54_">
		<rect x="80.2" y="2.3" class="st0" width="3.3" height="4.2"/>
	</g>
	<g id="LWPOLYLINE_55_">
		<rect x="73.2" y="8.1" class="st0" width="2.9" height="5.6"/>
	</g>
	<g id="LWPOLYLINE_56_">
		<rect x="76.1" y="8.1" class="st0" width="4" height="5.6"/>
	</g>
	<g id="LWPOLYLINE_57_">
		<rect x="83.2" y="8.1" class="st0" width="3.1" height="5.6"/>
	</g>
	<g id="LWPOLYLINE_58_">
		<rect x="53.1" y="8.1" class="st0" width="2.7" height="5.6"/>
	</g>
</g>
<g id="_x5F__x5F_B_x5F_RETINO_WC">
	<g id="HATCH">
		<polygon class="st1" points="25.9,9 20.7,9 20.7,13.7 25.9,13.7 25.9,9 		"/>
	</g>
	<g id="HATCH_6_">
		<path class="st1" d="M92.9,6.5h3.3V2.3h-3.3V6.5L92.9,6.5z M96.2,6.5h2.3l0-2.1h2.3V2.3h-4.6V6.5L96.2,6.5z"/>
	</g>
</g>
<g id="_x5F__x5F_B_x5F_RETINO_UFFICI">
	<g id="HATCH_1_">
		<path class="st2" d="M40.2,13.7H43V8.1h-2.8V13.7L40.2,13.7z M36.3,8.1h3.9v5.6h-3.9V8.1L36.3,8.1z M55.7,9.3h2.8v4.4h-2.8V9.3
			L55.7,9.3z M50.2,8.1h2.8v5.6h-2.8V8.1L50.2,8.1z M46.1,13.7h4.1V8.1h-4.1V13.7L46.1,13.7z M43,8.1h3.1v5.6H43V8.1L43,8.1z
			 M33.4,13.7h2.9V8.1h-2.9V13.7L33.4,13.7z M30.2,8.1h3.2v5.5h-3.2V8.1L30.2,8.1z M25.9,13.7h4.3V8.1h-4.3V13.7L25.9,13.7z"/>
	</g>
	<g id="HATCH_5_">
		<polygon class="st2" points="100.4,10.1 100.4,7.6 105.4,7.6 105.4,13.7 98,13.7 98,10.1 100.4,10.1 		"/>
	</g>
	<g id="HATCH_7_">
		<path class="st2" d="M80.2,6.5h3.3V2.3h-3.3V6.5L80.2,6.5z M73.3,6.5h-3V2.3h3V6.5L73.3,6.5z M76.3,6.5h-2.9V2.3h2.9V6.5L76.3,6.5
			z M80.2,6.5h-3.9V2.3h3.9V6.5L80.2,6.5z M86.2,6.5h-2.7V2.3h2.7V6.5L86.2,6.5z M90.4,6.5h-4.2V2.3h4.2V6.5L90.4,6.5z M92.9,6.5
			h-2.5V2.3h2.5V6.5L92.9,6.5z"/>
	</g>
	<g id="HATCH_9_">
		<polygon class="st2" points="60.7,6.5 56.3,6.5 56.3,2.3 60.7,2.3 60.7,6.5 		"/>
	</g>
	<g id="HATCH_10_">
		<path class="st2" d="M30.3,6.5h-4.3V2.3h4.3V6.5L30.3,6.5z M33.3,6.5h-2.9V2.3h2.9V6.5L33.3,6.5z M36.2,6.5h-3V2.3h3V6.5L36.2,6.5
			z M40.4,6.5h-4.2V2.3h4.2V6.5L40.4,6.5z M43.5,6.5h-3.1V2.3h3.1V6.5L43.5,6.5z M46.2,6.5h-2.8V2.3h2.8V6.5L46.2,6.5z M50.3,6.5h-4
			V2.3h4V6.5L50.3,6.5z M53.3,6.5h-3V2.3h3V6.5L53.3,6.5z M56.3,6.5h-3V2.3h3V6.5L56.3,6.5z"/>
	</g>
	<g id="HATCH_12_">
		<path class="st2" d="M15.2,6.5h3V2.3h-3V6.5L15.2,6.5z M3.5,6.5h2.8V2.3H3.5V6.5L3.5,6.5z M3.5,6.5H1V2.3h2.6V6.5L3.5,6.5z
			 M10.1,6.5H6.3V2.3h3.8V6.5L10.1,6.5z M12.8,6.5h-2.7V2.3h2.7V6.5L12.8,6.5z M15.2,6.5h-2.4V2.3h2.4V6.5L15.2,6.5z"/>
	</g>
	<g id="HATCH_13_">
		<path class="st2" d="M16.1,8.1h4.6v5.5h-4.6V8.1L16.1,8.1z M6,8.1H1v5.5H6V8.1L6,8.1z M10.1,8.1H6v5.5h4.1V8.1L10.1,8.1z
			 M13.1,8.1h-3v5.5h3V8.1L13.1,8.1z M16.1,8.1h-3.1v5.5h3.1V8.1L16.1,8.1z"/>
	</g>
	<g id="HATCH_14_">
		<path class="st2" d="M86.3,8.1h-3.1v5.6h3.1V8.1L86.3,8.1z M76.1,13.7h4V8.1h-4V13.7L76.1,13.7z M73.2,8.1h2.9v5.6h-2.9V8.1
			L73.2,8.1z M66.3,9.5h4.4v4.2h-4.4V9.5L66.3,9.5z M63,8.1h3.3v5.6H63V8.1L63,8.1z M58.6,8.1H63v5.6h-4.4V8.1L58.6,8.1z M93.1,8.1
			H98v5.6h-4.8V8.1L93.1,8.1z M90.1,8.1h3v5.6h-3V8.1L90.1,8.1z M86.3,8.1h3.8v5.6h-3.8V8.1L86.3,8.1z M80.1,8.1h3.1v5.6h-3.1V8.1
			L80.1,8.1z M70.8,8.1h2.5v5.6h-2.5V8.1L70.8,8.1z"/>
	</g>
	<g id="HATCH_15_">
		<polygon class="st2" points="53.1,8.1 55.7,8.1 55.7,13.7 53.1,13.7 53.1,8.1 		"/>
	</g>
</g>
<g id="_x5F__x5F_B_x5F_RETINO_SCALE_ASCENSORI">
	<g id="HATCH_2_">
		<polygon class="st3" points="26.1,6.5 20.7,6.5 20.7,2.3 26.1,2.3 26.1,6.5 		"/>
	</g>
	<g id="HATCH_3_">
		<polygon class="st3" points="60.7,6.5 65.7,6.5 65.7,2.3 60.7,2.3 60.7,6.5 		"/>
	</g>
	<g id="HATCH_4_">
		<polygon class="st3" points="100.8,2.3 105.4,2.3 105.4,7.6 100.8,7.6 100.8,2.3 		"/>
	</g>
</g>
<g id="_x5F__x5F_B_x5F_RETINO_TECNICO">
	<g id="HATCH_8_">
		<polygon class="st4" points="70.3,6.5 65.7,6.5 65.7,2.3 70.3,2.3 70.3,6.5 		"/>
	</g>
	<g id="HATCH_11_">
		<polygon class="st4" points="20.7,6.5 18.2,6.5 18.2,2.3 20.7,2.3 20.7,6.5 		"/>
	</g>
</g>
<g id="_x5F__x5F_B_TESTI_-_NOTE">
	<g id="MTEXT">
		<text transform="matrix(1 0 0 1 102.9575 5.1927)" class="st5 st6 st7">A</text>
	</g>
	<g id="MTEXT_7_">
		<text transform="matrix(1 0 0 1 62.4692 5.3207)" class="st5 st6 st7">A</text>
	</g>
</g>
<g id="_x5F__x5F_B_TESTI">
	<g id="MTEXT_1_">
		<text transform="matrix(1 0 0 1 20.8641 9.9166)" class="st8 st9">WCM</text>
	</g>
	<g id="MTEXT_2_">
		<text transform="matrix(1 0 0 1 20.104 12.4431)" class="st8 st9">WCF</text>
	</g>
	<g id="MTEXT_3_">
		<text transform="matrix(1 0 0 1 20.5186 15.1639)" class="st8 st9">WCD</text>
	</g>
	<g id="MTEXT_4_">
		<text transform="matrix(1 0 0 1 94.4929 2.3644)" class="st8 st9">WCM</text>
	</g>
	<g id="MTEXT_5_">
		<text transform="matrix(1 0 0 1 93.7329 4.891)" class="st8 st9">WCF</text>
	</g>
	<g id="MTEXT_6_">
		<text transform="matrix(1 0 0 1 94.1475 7.6118)" class="st8 st9">WCD</text>
	</g>
</g>
<g id="_x5F__x5F_B_FRECCE_ENTRATA">
	<g id="HATCH_16_">
		<polygon class="st10" points="63.3,5.5 62.1,7.6 64.5,7.6 63.3,5.5 		"/>
	</g>
	<g id="HATCH_17_">
		<polygon class="st10" points="23.5,4.9 22.4,6.9 24.7,6.9 23.5,4.9 		"/>
	</g>
	<g id="HATCH_18_">
		<polygon class="st10" points="102.1,6.3 100.1,5.1 100.1,7.5 102.1,6.3 		"/>
	</g>
</g>
</svg>
